<mxfile host="Electron" agent="Mozilla/5.0 (X11; Linux x86_64) AppleWebKit/537.36 (KHTML, like Gecko) draw.io/28.0.6 Chrome/138.0.7204.100 Electron/37.2.3 Safari/537.36" version="28.0.6">
  <diagram name="Page-1" id="FNGpsu2ie93glcQXgyGI">
    <mxGraphModel dx="792" dy="468" grid="1" gridSize="10" guides="1" tooltips="1" connect="1" arrows="1" fold="1" page="1" pageScale="1" pageWidth="850" pageHeight="1100" math="0" shadow="0">
      <root>
        <mxCell id="0" />
        <mxCell id="1" parent="0" />
        <mxCell id="eNXccjcQjAFQYZtDGvDH-20" value="k" style="rounded=0;whiteSpace=wrap;html=1;" vertex="1" parent="1">
          <mxGeometry x="110" y="300" width="620" height="280" as="geometry" />
        </mxCell>
        <mxCell id="eNXccjcQjAFQYZtDGvDH-4" style="edgeStyle=orthogonalEdgeStyle;rounded=0;orthogonalLoop=1;jettySize=auto;html=1;exitX=0.5;exitY=1;exitDx=0;exitDy=0;entryX=0.31;entryY=0;entryDx=0;entryDy=0;entryPerimeter=0;" edge="1" parent="1" source="eNXccjcQjAFQYZtDGvDH-2">
          <mxGeometry relative="1" as="geometry">
            <mxPoint x="333" y="300" as="targetPoint" />
            <Array as="points">
              <mxPoint x="280" y="270" />
              <mxPoint x="330" y="270" />
              <mxPoint x="330" y="300" />
            </Array>
          </mxGeometry>
        </mxCell>
        <mxCell id="eNXccjcQjAFQYZtDGvDH-2" value="Camera OV7670" style="rounded=0;whiteSpace=wrap;html=1;" vertex="1" parent="1">
          <mxGeometry x="220" y="180" width="120" height="60" as="geometry" />
        </mxCell>
        <mxCell id="eNXccjcQjAFQYZtDGvDH-5" value="SPI Comms" style="text;html=1;align=center;verticalAlign=middle;resizable=0;points=[];autosize=1;strokeColor=none;fillColor=none;" vertex="1" parent="1">
          <mxGeometry x="230" y="270" width="90" height="30" as="geometry" />
        </mxCell>
        <mxCell id="eNXccjcQjAFQYZtDGvDH-6" value="Screen (VGA?)" style="rounded=0;whiteSpace=wrap;html=1;" vertex="1" parent="1">
          <mxGeometry x="460" y="180" width="120" height="60" as="geometry" />
        </mxCell>
        <mxCell id="eNXccjcQjAFQYZtDGvDH-10" value="Analog Output" style="text;html=1;align=center;verticalAlign=middle;resizable=0;points=[];autosize=1;strokeColor=none;fillColor=none;" vertex="1" parent="1">
          <mxGeometry x="550" y="250" width="100" height="30" as="geometry" />
        </mxCell>
        <mxCell id="eNXccjcQjAFQYZtDGvDH-11" value="FPGA" style="text;html=1;align=center;verticalAlign=middle;resizable=0;points=[];autosize=1;strokeColor=none;fillColor=none;" vertex="1" parent="1">
          <mxGeometry x="360" y="270" width="60" height="30" as="geometry" />
        </mxCell>
        <mxCell id="eNXccjcQjAFQYZtDGvDH-15" style="edgeStyle=orthogonalEdgeStyle;rounded=0;orthogonalLoop=1;jettySize=auto;html=1;exitX=0.5;exitY=0;exitDx=0;exitDy=0;entryX=0.5;entryY=0;entryDx=0;entryDy=0;" edge="1" parent="1">
          <mxGeometry relative="1" as="geometry">
            <mxPoint x="330" y="330" as="targetPoint" />
            <mxPoint x="330.04761904761904" y="300" as="sourcePoint" />
            <Array as="points">
              <mxPoint x="330" y="310" />
              <mxPoint x="330" y="310" />
            </Array>
          </mxGeometry>
        </mxCell>
        <mxCell id="eNXccjcQjAFQYZtDGvDH-23" style="edgeStyle=orthogonalEdgeStyle;rounded=0;orthogonalLoop=1;jettySize=auto;html=1;" edge="1" parent="1" source="eNXccjcQjAFQYZtDGvDH-16" target="eNXccjcQjAFQYZtDGvDH-19">
          <mxGeometry relative="1" as="geometry" />
        </mxCell>
        <mxCell id="eNXccjcQjAFQYZtDGvDH-16" value="CDC FIFO" style="rounded=0;whiteSpace=wrap;html=1;" vertex="1" parent="1">
          <mxGeometry x="410" y="365" width="120" height="35" as="geometry" />
        </mxCell>
        <mxCell id="eNXccjcQjAFQYZtDGvDH-24" style="edgeStyle=orthogonalEdgeStyle;rounded=0;orthogonalLoop=1;jettySize=auto;html=1;" edge="1" parent="1">
          <mxGeometry relative="1" as="geometry">
            <mxPoint x="390" y="479.76" as="sourcePoint" />
            <mxPoint x="440" y="479.76" as="targetPoint" />
          </mxGeometry>
        </mxCell>
        <mxCell id="eNXccjcQjAFQYZtDGvDH-34" style="edgeStyle=orthogonalEdgeStyle;rounded=0;orthogonalLoop=1;jettySize=auto;html=1;entryX=0.5;entryY=1;entryDx=0;entryDy=0;" edge="1" parent="1" source="eNXccjcQjAFQYZtDGvDH-17" target="eNXccjcQjAFQYZtDGvDH-29">
          <mxGeometry relative="1" as="geometry">
            <Array as="points">
              <mxPoint x="330" y="540" />
              <mxPoint x="610" y="540" />
            </Array>
          </mxGeometry>
        </mxCell>
        <mxCell id="eNXccjcQjAFQYZtDGvDH-17" value="DRAM Buffer" style="rounded=0;whiteSpace=wrap;html=1;" vertex="1" parent="1">
          <mxGeometry x="270" y="440" width="120" height="60" as="geometry" />
        </mxCell>
        <mxCell id="eNXccjcQjAFQYZtDGvDH-25" style="edgeStyle=orthogonalEdgeStyle;rounded=0;orthogonalLoop=1;jettySize=auto;html=1;" edge="1" parent="1">
          <mxGeometry relative="1" as="geometry">
            <mxPoint x="390" y="460" as="targetPoint" />
            <mxPoint x="440" y="459.9999999999999" as="sourcePoint" />
          </mxGeometry>
        </mxCell>
        <mxCell id="eNXccjcQjAFQYZtDGvDH-19" value="Stacking Core" style="rounded=0;whiteSpace=wrap;html=1;" vertex="1" parent="1">
          <mxGeometry x="440" y="440" width="120" height="60" as="geometry" />
        </mxCell>
        <mxCell id="eNXccjcQjAFQYZtDGvDH-28" value="&lt;font style=&quot;font-size: 10px;&quot;&gt;Bidirectional&amp;nbsp;&lt;span style=&quot;background-color: transparent; color: light-dark(rgb(0, 0, 0), rgb(255, 255, 255));&quot;&gt;Image&lt;/span&gt;&lt;/font&gt;&lt;div&gt;&lt;div&gt;&lt;font style=&quot;font-size: 10px;&quot;&gt;Data&lt;/font&gt;&lt;/div&gt;&lt;/div&gt;" style="text;html=1;align=center;verticalAlign=middle;resizable=0;points=[];autosize=1;strokeColor=none;fillColor=none;" vertex="1" parent="1">
          <mxGeometry x="365" y="500" width="110" height="40" as="geometry" />
        </mxCell>
        <mxCell id="eNXccjcQjAFQYZtDGvDH-29" value="VGA Buffer (+CDC Out)" style="rounded=0;whiteSpace=wrap;html=1;" vertex="1" parent="1">
          <mxGeometry x="550" y="317.5" width="120" height="60" as="geometry" />
        </mxCell>
        <mxCell id="eNXccjcQjAFQYZtDGvDH-35" style="edgeStyle=orthogonalEdgeStyle;rounded=0;orthogonalLoop=1;jettySize=auto;html=1;entryX=0.5;entryY=1;entryDx=0;entryDy=0;exitX=0.5;exitY=0;exitDx=0;exitDy=0;" edge="1" parent="1" source="eNXccjcQjAFQYZtDGvDH-29" target="eNXccjcQjAFQYZtDGvDH-6">
          <mxGeometry relative="1" as="geometry" />
        </mxCell>
        <mxCell id="eNXccjcQjAFQYZtDGvDH-38" value="Camera Control (Exposure/Gain etc)" style="rounded=0;whiteSpace=wrap;html=1;" vertex="1" parent="1">
          <mxGeometry x="140" y="365" width="100" height="75" as="geometry" />
        </mxCell>
        <mxCell id="eNXccjcQjAFQYZtDGvDH-39" style="edgeStyle=orthogonalEdgeStyle;rounded=0;orthogonalLoop=1;jettySize=auto;html=1;entryX=0.111;entryY=1.04;entryDx=0;entryDy=0;entryPerimeter=0;" edge="1" parent="1" source="eNXccjcQjAFQYZtDGvDH-38" target="eNXccjcQjAFQYZtDGvDH-2">
          <mxGeometry relative="1" as="geometry">
            <Array as="points">
              <mxPoint x="190" y="330" />
              <mxPoint x="233" y="330" />
            </Array>
          </mxGeometry>
        </mxCell>
        <mxCell id="eNXccjcQjAFQYZtDGvDH-42" style="edgeStyle=orthogonalEdgeStyle;rounded=0;orthogonalLoop=1;jettySize=auto;html=1;entryX=0.5;entryY=0;entryDx=0;entryDy=0;" edge="1" parent="1" source="eNXccjcQjAFQYZtDGvDH-40" target="eNXccjcQjAFQYZtDGvDH-16">
          <mxGeometry relative="1" as="geometry" />
        </mxCell>
        <mxCell id="eNXccjcQjAFQYZtDGvDH-40" value="Bit Depth Upconvert&lt;br&gt;(8 bit to 12 bit?)" style="rounded=0;whiteSpace=wrap;html=1;" vertex="1" parent="1">
          <mxGeometry x="270" y="330" width="120" height="50" as="geometry" />
        </mxCell>
      </root>
    </mxGraphModel>
  </diagram>
</mxfile>
